{"glyphs":{"0":{"ha":1081,"x_min":0,"x_max":0,"o":"m -19 0 b -81 85 -64 0 -95 43 l 182 883 b 305 972 199 936 249 972 l 1013 972 b 1137 802 1102 972 1164 886 l 902 89 b 779 0 885 36 835 0 l -19 0 m 103 250 b 164 164 89 208 120 164 l 438 164 b 561 253 494 164 543 200 l 717 722 b 655 808 731 764 700 808 l 380 808 b 257 718 324 808 275 772 l 103 250 "},"1":{"ha":626,"x_min":0,"x_max":0,"o":"m 646 972 b 707 887 690 972 721 929 l 445 89 b 439 74 443 84 441 79 b 321 0 417 29 372 0 l 111 0 b 49 85 67 0 35 43 l 262 731 l 173 731 b 111 816 129 731 97 774 l 147 926 b 209 972 156 952 181 972 l 646 972 "},"2":{"ha":1078,"x_min":0,"x_max":0,"o":"m 1012 972 b 1135 802 1100 972 1163 886 l 1028 477 b 905 387 1011 423 961 387 l 427 387 b 400 360 412 387 400 375 b 427 333 400 345 412 333 l 892 333 b 954 248 936 333 968 290 l 902 89 b 778 0 884 36 834 0 l -21 0 b -82 85 -65 0 -96 43 l 42 462 b 165 552 59 516 109 552 l 896 552 b 923 581 912 552 924 565 b 894 606 922 595 908 606 l 179 606 b 117 691 134 606 103 649 l 180 883 b 304 972 198 936 247 972 l 1012 972 "},"3":{"ha":1078,"x_min":0,"x_max":0,"o":"m 1009 972 b 1133 802 1098 972 1160 886 l 899 89 b 775 0 881 36 832 0 l -24 0 b -85 85 -68 0 -99 43 l -33 244 b 90 333 -16 297 34 333 l 821 333 b 848 363 837 333 849 347 b 819 387 846 377 833 387 l 93 387 b 39 462 54 387 27 425 b 162 552 56 516 106 552 l 893 552 b 920 581 909 552 921 565 b 891 606 919 595 905 606 l 176 606 b 114 691 132 606 100 649 l 177 883 b 301 972 195 936 245 972 l 1009 972 "},"4":{"ha":1103,"x_min":0,"x_max":0,"o":"m 997 552 b 1052 477 1036 552 1064 514 b 928 387 1034 423 984 387 l 863 387 l 764 89 b 641 0 747 36 697 0 l 432 0 b 370 85 387 0 356 43 l 441 302 b 380 387 455 344 424 387 l 177 387 b 53 558 88 387 26 474 l 160 883 b 284 972 178 936 228 972 l 494 972 b 556 887 538 972 570 929 l 493 695 b 369 606 475 642 425 606 l 231 606 b 203 582 217 606 204 596 b 230 552 201 565 214 552 l 760 552 b 787 581 776 552 788 565 b 758 606 786 595 772 606 l 629 606 b 568 691 585 606 554 649 l 631 883 b 754 972 648 936 698 972 l 966 972 b 1028 887 1010 972 1041 929 l 917 552 l 997 552 "},"5":{"ha":1072,"x_min":0,"x_max":0,"o":"m 1008 972 b 1131 802 1096 972 1159 886 l 1096 695 b 973 606 1079 642 1029 606 l 265 606 b 238 579 250 606 238 594 b 265 552 238 564 250 552 l 870 552 b 993 381 958 552 1021 465 l 897 89 b 774 0 880 36 830 0 l -25 0 b -87 85 -69 0 -100 43 l -73 126 b -11 170 -64 152 -39 170 l 575 170 l 593 224 b 717 313 611 277 660 313 l 817 313 b 764 387 830 349 803 387 l 103 387 b 41 473 58 387 27 431 l 176 883 b 299 972 194 936 243 972 l 1008 972 "},"6":{"ha":1078,"x_min":0,"x_max":0,"o":"m 1012 972 b 1135 802 1100 972 1163 886 l 1100 695 b 977 606 1083 642 1033 606 l 269 606 b 242 576 253 606 240 592 b 270 552 243 562 256 552 l 964 552 b 1025 466 1008 552 1039 508 l 901 89 b 777 0 883 36 833 0 l 69 0 b -54 171 -19 0 -82 87 l 180 883 b 304 972 198 936 248 972 l 1012 972 m 365 250 b 427 164 351 208 383 164 l 702 164 b 825 254 758 164 808 200 l 863 368 b 801 453 877 410 845 453 l 527 453 b 403 364 471 453 421 418 l 365 250 "},"7":{"ha":879,"x_min":0,"x_max":0,"o":"m 812 972 b 935 802 901 972 963 886 l 701 89 b 695 74 699 84 697 79 b 577 0 673 29 628 0 l 367 0 b 305 85 323 0 291 43 l 458 552 l 651 552 b 678 579 666 552 678 565 b 651 607 678 594 666 607 l 141 607 b 79 692 97 607 66 650 l 158 928 b 219 972 167 954 191 972 l 812 972 "},"8":{"ha":1081,"x_min":0,"x_max":0,"o":"m 1050 542 b 927 453 1032 489 983 453 l 930 453 b 992 368 975 453 1006 410 l 899 89 b 776 0 882 36 832 0 l 68 0 b -56 171 -21 0 -84 87 l 31 430 b 154 519 48 483 98 519 l 150 519 b 89 604 106 519 75 562 l 182 883 b 305 972 199 936 249 972 l 1103 972 b 1164 887 1147 972 1178 929 l 1050 542 m 862 368 b 800 453 875 410 844 453 l 525 453 b 402 364 469 453 420 418 l 364 250 b 426 164 350 208 381 164 l 700 164 b 824 254 757 164 806 200 l 862 368 m 981 722 b 919 808 995 764 963 808 l 644 808 b 521 718 588 808 538 772 l 483 604 b 545 519 469 562 501 519 l 819 519 b 943 608 875 519 925 555 l 981 722 "},"9":{"ha":1083,"x_min":0,"x_max":0,"o":"m 1103 972 b 1164 887 1147 972 1178 929 l 902 89 b 778 0 884 36 835 0 l -18 0 b -80 84 -62 0 -93 42 l -30 248 b 95 339 -13 302 38 339 l 803 339 b 830 369 819 339 831 353 b 801 393 828 383 815 393 l 108 393 b 46 479 64 393 32 437 l 181 883 b 305 972 199 936 249 972 l 1103 972 m 982 722 b 920 808 996 764 964 808 l 645 808 b 522 718 589 808 539 772 l 484 604 b 546 519 470 562 502 519 l 820 519 b 944 608 876 519 926 555 l 982 722 "},"\u0000":{"ha":0,"x_min":0,"x_max":0,"o":""},"\n":{"ha":0,"x_min":0,"x_max":0,"o":""},"\r":{"ha":0,"x_min":0,"x_max":0,"o":""}," ":{"ha":696,"x_min":0,"x_max":0,"o":""},"!":{"ha":449,"x_min":0,"x_max":0,"o":"m 463 972 b 525 887 507 972 538 929 l 346 343 b 284 298 337 316 312 298 l 75 298 b 14 383 31 298 0 341 l 178 883 b 301 972 195 936 245 972 l 463 972 m 237 254 b 298 169 281 254 312 211 l 257 45 b 195 0 248 18 223 0 l -14 0 b -76 85 -58 0 -89 43 l -49 165 b 75 254 -31 218 19 254 l 237 254 "},",":{"ha":396,"x_min":0,"x_max":0,"o":"m 206 257 b 268 171 250 257 282 213 l 226 47 l 155 -167 l 59 2 l -44 2 b -106 87 -89 2 -120 45 l -79 167 b 44 257 -62 221 -12 257 l 206 257 "},"-":{"ha":642,"x_min":0,"x_max":0,"o":"m 549 539 b 611 454 593 539 625 496 l 569 329 b 508 285 560 303 536 285 l 42 285 b -20 370 -2 285 -34 328 l 7 450 b 131 539 25 503 74 539 l 549 539 "},".":{"ha":396,"x_min":0,"x_max":0,"o":"m 205 254 b 266 169 249 254 280 211 l 225 45 b 163 0 216 18 191 0 l -46 0 b -107 85 -90 0 -121 43 l -81 165 b 43 254 -63 218 -13 254 l 205 254 "},"/":{"ha":488,"x_min":0,"x_max":0,"o":"m 123 718 b 247 807 141 771 190 807 l 457 807 b 519 722 501 807 533 764 l 311 90 b 188 1 293 37 244 1 l -23 0 b -85 85 -68 0 -99 43 l 123 718 "},":":{"ha":422,"x_min":0,"x_max":0,"o":"m 312 553 b 374 467 356 553 387 509 l 332 343 b 270 298 323 316 298 298 l 61 298 b 0 383 17 298 -14 341 l 27 463 b 150 553 44 516 94 553 l 312 553 m 223 254 b 284 169 267 254 298 211 l 243 45 b 181 0 234 18 209 0 l -28 0 b -89 85 -72 0 -103 43 l -63 165 b 61 254 -45 218 5 254 l 223 254 "},";":{"ha":424,"x_min":0,"x_max":0,"o":"m 313 555 b 375 469 357 555 389 511 l 333 345 b 272 300 325 318 300 300 l 63 300 b 1 386 19 300 -13 344 l 28 465 b 151 555 45 519 95 555 l 313 555 m 224 257 b 286 171 268 257 300 213 l 244 47 l 173 -167 l 77 2 l -26 2 b -88 87 -71 2 -102 45 l -61 167 b 62 257 -44 221 6 257 l 224 257 "},"?":{"ha":1065,"x_min":0,"x_max":0,"o":"m 1098 972 b 1160 887 1142 972 1174 929 l 1011 426 b 887 337 993 373 943 337 l 338 337 l 332 320 b 301 298 328 307 315 298 l 76 298 b 14 384 32 298 0 342 l 24 413 b 148 502 42 466 91 502 l 852 502 b 879 532 868 502 881 516 b 851 556 878 546 865 556 l 161 556 b 99 642 117 556 86 599 l 176 883 b 300 972 194 936 244 972 l 1098 972 m 230 254 b 291 169 274 254 305 211 l 250 45 b 188 0 241 18 216 0 l -21 0 b -82 85 -65 0 -96 43 l -56 165 b 68 254 -38 218 12 254 l 230 254 "},"A":{"ha":1081,"x_min":0,"x_max":0,"o":"m 1102 972 b 1163 887 1146 972 1177 929 l 886 45 b 824 0 877 18 852 0 l 591 0 b 530 86 547 0 515 44 l 677 521 b 615 606 691 563 659 606 l 220 606 b 194 586 208 606 197 598 b 220 552 189 569 202 552 l 585 552 b 616 509 607 552 623 530 l 591 432 b 529 387 582 405 557 387 l 458 387 b 397 343 430 387 405 369 l 299 45 b 237 0 290 18 265 0 l -21 0 b -82 85 -65 0 -96 43 l 180 883 b 186 898 182 888 184 893 b 304 972 208 943 253 972 l 1102 972 "},"À":{"ha":1081,"x_min":0,"x_max":0,"o":"m 1102 972 l 304 972 b 186 898 253 972 208 943 b 180 883 184 893 182 888 l -82 85 b -21 0 -96 43 -65 0 l 237 0 b 299 45 265 0 290 18 l 397 343 b 458 387 405 369 430 387 l 529 387 b 591 432 557 387 582 405 l 616 509 b 585 552 623 530 607 552 l 220 552 b 194 586 202 552 189 569 b 220 606 197 598 208 606 l 615 606 b 677 521 659 606 691 563 l 530 86 b 591 0 515 44 547 0 l 824 0 b 886 45 852 0 877 18 l 1163 887 b 1102 972 1177 929 1146 972 "},"Á":{"ha":1081,"x_min":0,"x_max":0,"o":"m 1102 972 b 1163 887 1146 972 1177 929 l 886 45 b 824 0 877 18 852 0 l 591 0 b 530 86 547 0 515 44 l 677 521 b 615 606 691 563 659 606 l 220 606 b 194 586 208 606 197 598 b 220 552 189 569 202 552 l 585 552 b 616 509 607 552 623 530 l 591 432 b 529 387 582 405 557 387 l 458 387 b 397 343 430 387 405 369 l 299 45 b 237 0 290 18 265 0 l -21 0 b -82 85 -65 0 -96 43 l 180 883 b 186 898 182 888 184 893 b 304 972 208 943 253 972 l 1102 972 "},"Â":{"ha":1081,"x_min":0,"x_max":0,"o":"m 1102 972 l 304 972 b 186 898 253 972 208 943 b 180 883 184 893 182 888 l -82 85 b -21 0 -96 43 -65 0 l 237 0 b 299 45 265 0 290 18 l 397 343 b 458 387 405 369 430 387 l 529 387 b 591 432 557 387 582 405 l 616 509 b 585 552 623 530 607 552 l 220 552 b 194 586 202 552 189 569 b 220 606 197 598 208 606 l 615 606 b 677 521 659 606 691 563 l 530 86 b 591 0 515 44 547 0 l 824 0 b 886 45 852 0 877 18 l 1163 887 b 1102 972 1177 929 1146 972 "},"Ã":{"ha":1081,"x_min":0,"x_max":0,"o":"m 1102 972 b 1163 887 1146 972 1177 929 l 886 45 b 824 0 877 18 852 0 l 591 0 b 530 86 547 0 515 44 l 677 521 b 615 606 691 563 659 606 l 220 606 b 194 586 208 606 197 598 b 220 552 189 569 202 552 l 585 552 b 616 509 607 552 623 530 l 591 432 b 529 387 582 405 557 387 l 458 387 b 397 343 430 387 405 369 l 299 45 b 237 0 290 18 265 0 l -21 0 b -82 85 -65 0 -96 43 l 180 883 b 186 898 182 888 184 893 b 304 972 208 943 253 972 l 1102 972 "},"Ä":{"ha":1081,"x_min":0,"x_max":0,"o":"m 1102 972 l 304 972 b 186 898 253 972 208 943 b 180 883 184 893 182 888 l -82 85 b -21 0 -96 43 -65 0 l 237 0 b 299 45 265 0 290 18 l 397 343 b 458 387 405 369 430 387 l 529 387 b 591 432 557 387 582 405 l 616 509 b 585 552 623 530 607 552 l 220 552 b 194 586 202 552 189 569 b 220 606 197 598 208 606 l 615 606 b 677 521 659 606 691 563 l 530 86 b 591 0 515 44 547 0 l 824 0 b 886 45 852 0 877 18 l 1163 887 b 1102 972 1177 929 1146 972 "},"Å":{"ha":1081,"x_min":0,"x_max":0,"o":"m 1102 972 b 1163 887 1146 972 1177 929 l 886 45 b 824 0 877 18 852 0 l 591 0 b 530 86 547 0 515 44 l 677 521 b 615 606 691 563 659 606 l 220 606 b 194 586 208 606 197 598 b 220 552 189 569 202 552 l 585 552 b 616 509 607 552 623 530 l 591 432 b 529 387 582 405 557 387 l 458 387 b 397 343 430 387 405 369 l 299 45 b 237 0 290 18 265 0 l -21 0 b -82 85 -65 0 -96 43 l 180 883 b 186 898 182 888 184 893 b 304 972 208 943 253 972 l 1102 972 "},"B":{"ha":1068,"x_min":0,"x_max":0,"o":"m 1094 972 b 1155 887 1138 972 1169 929 l 1020 477 b 897 387 1003 423 953 387 l 812 387 b 936 217 901 387 963 301 l 894 89 b 770 0 876 36 826 0 l -28 0 b -90 83 -71 0 -102 42 l -79 120 b -18 164 -71 146 -46 164 l 752 164 b 778 194 767 164 780 178 b 750 219 777 208 764 219 l 466 219 b 404 304 422 219 390 262 l 471 507 b 533 552 480 534 505 552 l 884 552 b 911 582 900 552 913 565 b 883 606 910 596 897 606 l 541 606 b 417 516 485 606 435 570 l 386 423 b 263 333 369 369 319 333 l 81 333 b 19 419 37 333 5 377 l 172 883 b 178 898 174 888 176 893 b 295 972 200 943 245 972 l 1094 972 "},"C":{"ha":1063,"x_min":0,"x_max":0,"o":"m 1018 972 b 1137 808 1104 972 1164 889 l 1137 808 b 1135 802 1136 806 1136 804 l 1086 650 b 1024 606 1077 624 1052 606 l 766 606 b 705 691 722 606 691 649 l 711 709 b 772 754 719 736 744 754 l 960 754 b 987 784 976 754 988 767 b 958 808 985 798 972 808 l 645 808 b 521 719 589 808 539 772 l 365 250 b 427 164 351 208 383 164 l 631 164 b 693 209 659 164 684 182 l 719 289 b 781 333 728 315 753 333 l 891 333 b 953 248 936 333 967 290 l 901 89 b 777 0 883 36 833 0 l -21 0 b -82 85 -65 0 -96 43 l 180 883 b 304 972 198 936 248 972 l 1018 972 "},"Ç":{"ha":1063,"x_min":0,"x_max":0,"o":"m 1018 972 l 304 972 b 180 883 248 972 198 936 l -82 85 b -21 0 -96 43 -65 0 l 777 0 b 901 89 833 0 883 36 l 953 248 b 891 333 967 290 936 333 l 781 333 b 719 289 753 333 728 315 l 693 209 b 631 164 684 182 659 164 l 427 164 b 365 250 383 164 351 208 l 521 719 b 645 808 539 772 589 808 l 958 808 b 987 784 972 808 985 798 b 960 754 988 767 976 754 l 772 754 b 711 709 744 754 719 736 l 705 691 b 766 606 691 649 722 606 l 1024 606 b 1086 650 1052 606 1077 624 l 1135 802 b 1137 808 1136 804 1136 806 l 1137 808 b 1018 972 1164 889 1104 972 "},"D":{"ha":1078,"x_min":0,"x_max":0,"o":"m 1012 972 b 1135 802 1100 972 1163 886 l 901 89 b 777 0 883 36 833 0 l -21 0 b -82 85 -65 0 -96 43 l 180 883 b 304 972 198 936 247 972 l 1012 972 m 980 722 b 918 808 994 764 962 808 l 645 808 b 521 719 589 808 539 772 l 355 219 l 156 219 b 129 192 141 219 129 207 b 156 165 129 177 141 165 l 337 165 l 337 164 l 678 164 l 719 289 b 781 333 728 315 753 333 l 852 333 l 980 722 "},"E":{"ha":1067,"x_min":0,"x_max":0,"o":"m 1012 972 b 1135 802 1100 972 1163 886 l 1100 695 b 977 606 1083 642 1033 606 l 248 606 b 221 576 232 606 219 592 b 249 552 222 562 235 552 l 963 552 b 1025 466 1008 552 1039 508 l 1014 432 b 952 387 1005 405 980 387 l 435 387 b 408 363 421 387 409 377 b 436 333 406 346 420 333 l 679 333 b 718 282 706 333 726 307 b 704 239 718 281 704 239 l 863 239 b 927 186 896 239 921 216 b 925 163 928 178 927 170 b 901 89 925 163 901 89 b 777 0 883 36 833 0 l -21 0 b -82 85 -65 0 -96 43 l 180 883 b 304 972 198 936 248 972 l 1012 972 "},"È":{"ha":1067,"x_min":0,"x_max":0,"o":"m 1012 972 l 304 972 b 180 883 248 972 198 936 l -82 85 b -21 0 -96 43 -65 0 l 777 0 b 901 89 833 0 883 36 b 925 163 901 89 925 163 b 927 186 927 170 928 178 b 863 239 921 216 896 239 l 704 239 b 718 282 704 239 718 281 b 679 333 726 307 706 333 l 436 333 b 408 363 420 333 406 346 b 435 387 409 377 421 387 l 952 387 b 1014 432 980 387 1005 405 l 1025 466 b 963 552 1039 508 1008 552 l 249 552 b 221 576 235 552 222 562 b 248 606 219 592 232 606 l 977 606 b 1100 695 1033 606 1083 642 l 1135 802 b 1012 972 1163 886 1100 972 "},"É":{"ha":1067,"x_min":0,"x_max":0,"o":"m 1012 972 b 1135 802 1100 972 1163 886 l 1100 695 b 977 606 1083 642 1033 606 l 248 606 b 221 576 232 606 219 592 b 249 552 222 562 235 552 l 963 552 b 1025 466 1008 552 1039 508 l 1014 432 b 952 387 1005 405 980 387 l 435 387 b 408 363 421 387 409 377 b 436 333 406 346 420 333 l 679 333 b 718 282 706 333 726 307 b 704 239 718 281 704 239 l 863 239 b 927 186 896 239 921 216 b 925 163 928 178 927 170 b 901 89 925 163 901 89 b 777 0 883 36 833 0 l -21 0 b -82 85 -65 0 -96 43 l 180 883 b 304 972 198 936 248 972 l 1012 972 "},"Ê":{"ha":1067,"x_min":0,"x_max":0,"o":"m 1012 972 l 304 972 b 180 883 248 972 198 936 l -82 85 b -21 0 -96 43 -65 0 l 777 0 b 901 89 833 0 883 36 b 925 163 901 89 925 163 b 927 186 927 170 928 178 b 863 239 921 216 896 239 l 704 239 b 718 282 704 239 718 281 b 679 333 726 307 706 333 l 436 333 b 408 363 420 333 406 346 b 435 387 409 377 421 387 l 952 387 b 1014 432 980 387 1005 405 l 1025 466 b 963 552 1039 508 1008 552 l 249 552 b 221 576 235 552 222 562 b 248 606 219 592 232 606 l 977 606 b 1100 695 1033 606 1083 642 l 1135 802 b 1012 972 1163 886 1100 972 "},"Ë":{"ha":1067,"x_min":0,"x_max":0,"o":"m 1012 972 b 1135 802 1100 972 1163 886 l 1100 695 b 977 606 1083 642 1033 606 l 248 606 b 221 576 232 606 219 592 b 249 552 222 562 235 552 l 963 552 b 1025 466 1008 552 1039 508 l 1014 432 b 952 387 1005 405 980 387 l 435 387 b 408 363 421 387 409 377 b 436 333 406 346 420 333 l 679 333 b 718 282 706 333 726 307 b 704 239 718 281 704 239 l 863 239 b 927 186 896 239 921 216 b 925 163 928 178 927 170 b 901 89 925 163 901 89 b 777 0 883 36 833 0 l -21 0 b -82 85 -65 0 -96 43 l 180 883 b 304 972 198 936 248 972 l 1012 972 "},"F":{"ha":1047,"x_min":0,"x_max":0,"o":"m 1012 972 b 1135 802 1100 972 1163 886 l 1100 695 b 977 606 1083 642 1033 606 l 248 606 b 221 576 232 606 219 592 b 249 552 222 562 235 552 l 963 552 b 1025 466 1007 552 1039 508 l 1014 432 b 952 387 1005 405 980 387 l 458 387 b 397 343 430 387 405 369 l 298 45 b 237 0 290 18 265 0 l -21 0 b -44 4 -29 0 -37 2 b -51 7 -46 5 -49 6 b -60 13 -54 9 -57 11 b -83 45 -71 21 -79 33 b -86 70 -85 53 -86 61 b -82 85 -85 75 -84 80 l 180 883 b 304 972 198 936 247 972 l 1012 972 "},"G":{"ha":1156,"x_min":0,"x_max":0,"o":"m 1102 974 b 1165 888 1147 974 1179 931 l 1154 855 b 1091 810 1145 828 1120 810 l 646 810 b 523 721 590 810 540 774 l 367 253 b 429 167 353 210 384 167 l 679 167 b 680 167 680 167 680 167 l 721 290 b 783 335 729 317 754 335 l 1016 335 b 1078 249 1060 335 1092 292 l 956 -122 b 894 -167 947 -149 922 -167 l 618 -167 b 587 -123 596 -167 580 -145 l 603 -75 b 634 -52 607 -61 620 -52 l 713 -52 b 740 -23 728 -52 741 -39 b 711 2 738 -8 725 2 l -19 2 b -81 87 -64 2 -95 45 l 181 885 b 305 974 199 938 249 974 l 1102 974 "},"H":{"ha":1081,"x_min":0,"x_max":0,"o":"m 1102 972 b 1163 887 1146 972 1177 929 l 886 45 b 824 0 877 18 852 0 l 567 0 b 505 85 523 0 491 43 l 572 288 b 634 333 581 315 606 333 l 823 333 b 850 363 839 333 852 347 b 821 387 849 377 836 387 l 411 387 l 299 45 b 237 0 290 18 265 0 l -21 0 b -82 85 -65 0 -96 43 l 180 883 b 186 898 182 888 184 893 b 304 972 208 943 253 972 l 514 972 b 576 887 558 972 590 929 l 465 552 l 659 552 l 768 883 b 774 898 770 888 772 893 b 891 972 795 943 841 972 l 1102 972 "},"I":{"ha":882,"x_min":0,"x_max":0,"o":"m 925 972 b 986 887 969 972 1000 929 l 909 650 b 847 606 900 624 875 606 l 481 606 l 402 366 l 475 366 b 537 281 519 366 551 323 l 523 239 l 682 239 b 744 154 726 239 757 196 l 708 45 b 646 0 699 18 674 0 l -35 0 b -96 85 -79 0 -110 43 l -33 277 b 90 366 -16 330 34 366 l 243 366 l 322 606 l 166 606 b 105 691 122 606 91 649 l 168 883 b 291 972 185 936 235 972 l 925 972 "},"Ì":{"ha":882,"x_min":0,"x_max":0,"o":"m 925 972 l 291 972 b 168 883 235 972 185 936 l 105 691 b 166 606 91 649 122 606 l 322 606 l 243 366 l 90 366 b -33 277 34 366 -16 330 l -96 85 b -35 0 -110 43 -79 0 l 646 0 b 708 45 674 0 699 18 l 744 154 b 682 239 757 196 726 239 l 523 239 l 537 281 b 475 366 551 323 519 366 l 402 366 l 481 606 l 847 606 b 909 650 875 606 900 624 l 986 887 b 925 972 1000 929 969 972 "},"Í":{"ha":882,"x_min":0,"x_max":0,"o":"m 925 972 b 986 887 969 972 1000 929 l 909 650 b 847 606 900 624 875 606 l 481 606 l 402 366 l 475 366 b 537 281 519 366 551 323 l 523 239 l 682 239 b 744 154 726 239 757 196 l 708 45 b 646 0 699 18 674 0 l -35 0 b -96 85 -79 0 -110 43 l -33 277 b 90 366 -16 330 34 366 l 243 366 l 322 606 l 166 606 b 105 691 122 606 91 649 l 168 883 b 291 972 185 936 235 972 l 925 972 "},"Î":{"ha":882,"x_min":0,"x_max":0,"o":"m 925 972 l 291 972 b 168 883 235 972 185 936 l 105 691 b 166 606 91 649 122 606 l 322 606 l 243 366 l 90 366 b -33 277 34 366 -16 330 l -96 85 b -35 0 -110 43 -79 0 l 646 0 b 708 45 674 0 699 18 l 744 154 b 682 239 757 196 726 239 l 523 239 l 537 281 b 475 366 551 323 519 366 l 402 366 l 481 606 l 847 606 b 909 650 875 606 900 624 l 986 887 b 925 972 1000 929 969 972 "},"Ï":{"ha":882,"x_min":0,"x_max":0,"o":"m 925 972 b 986 887 969 972 1000 929 l 909 650 b 847 606 900 624 875 606 l 481 606 l 402 366 l 475 366 b 537 281 519 366 551 323 l 523 239 l 682 239 b 744 154 726 239 757 196 l 708 45 b 646 0 699 18 674 0 l -35 0 b -96 85 -79 0 -110 43 l -33 277 b 90 366 -16 330 34 366 l 243 366 l 322 606 l 166 606 b 105 691 122 606 91 649 l 168 883 b 291 972 185 936 235 972 l 925 972 "},"J":{"ha":1032,"x_min":0,"x_max":0,"o":"m 1054 972 b 1116 887 1098 972 1130 929 l 852 89 b 729 0 835 36 785 0 l -69 0 b -131 85 -114 0 -145 43 l -79 244 b 45 333 -61 297 -12 333 l 257 333 b 317 250 300 333 330 291 b 378 164 303 208 334 164 l 716 164 b 743 194 732 164 745 178 b 715 219 742 208 729 219 l 591 219 b 530 304 547 219 516 262 l 726 898 b 843 972 748 943 793 972 l 1054 972 "},"K":{"ha":1076,"x_min":0,"x_max":0,"o":"m 1102 972 b 1163 887 1146 972 1177 929 l 1028 477 b 905 387 1011 423 961 387 l 820 387 b 944 217 909 387 971 301 l 902 89 b 778 0 884 36 835 0 l 568 0 b 506 85 524 0 492 43 l 578 302 b 516 387 591 344 560 387 l 411 387 l 299 45 b 237 0 290 18 265 0 l -21 0 b -63 16 -37 0 -52 6 b -86 62 -76 27 -85 44 b -82 85 -86 70 -85 77 l 180 883 b 186 898 182 888 184 893 b 304 972 208 943 253 972 l 514 972 b 576 887 558 972 590 929 l 465 552 l 896 552 b 923 581 912 552 924 565 b 894 606 922 595 908 606 l 765 606 b 703 691 721 606 690 649 l 767 883 b 890 972 784 936 834 972 l 1102 972 "},"L":{"ha":1031,"x_min":0,"x_max":0,"o":"m 891 333 b 953 248 936 333 967 290 l 901 89 b 777 0 883 36 833 0 l -21 0 b -77 33 -46 0 -66 14 b -82 85 -86 48 -89 67 l 180 883 b 186 898 182 888 184 893 b 304 972 208 943 253 972 l 514 972 b 576 887 558 972 590 929 l 363 241 b 427 164 356 202 386 164 l 746 164 b 773 194 762 164 775 178 b 744 219 772 208 759 219 b 711 264 721 219 704 242 l 719 289 b 781 333 728 315 753 333 l 891 333 "},"M":{"ha":1265,"x_min":0,"x_max":0,"o":"m 1201 971 b 1324 800 1289 971 1352 885 l 1088 90 b 965 1 1070 37 1021 1 l 752 1 b 691 86 708 1 677 44 l 842 548 b 781 633 856 590 825 633 l 764 633 b 703 589 736 633 711 615 l 632 377 b 571 333 623 350 599 333 l 541 333 b 480 418 497 333 466 376 l 540 599 b 512 633 545 616 531 635 b 489 614 502 632 493 624 l 315 90 b 314 88 315 89 315 89 l 310 73 b 210 1 295 30 255 1 b 203 1 207 1 205 1 b -20 0 199 1 -20 0 b -82 85 -65 0 -96 43 l 195 927 b 256 971 203 953 228 971 l 489 971 b 604 813 571 971 629 891 l 603 812 l 627 882 b 750 971 644 936 694 971 l 1201 971 "},"N":{"ha":1081,"x_min":0,"x_max":0,"o":"m -21 0 b -82 85 -65 0 -96 43 l 180 883 b 186 898 182 888 184 893 b 304 972 208 943 253 972 l 1102 972 b 1163 887 1146 972 1177 929 l 901 89 b 777 0 883 36 833 0 l 568 0 b 506 86 523 0 492 43 l 713 709 b 775 754 722 736 747 754 l 945 754 b 972 783 961 754 974 767 b 944 808 971 798 958 808 l 644 808 b 520 718 588 808 538 772 l 313 89 b 190 0 296 36 246 0 l -21 0 "},"Ñ":{"ha":1081,"x_min":0,"x_max":0,"o":"m -21 0 l 190 0 b 313 89 246 0 296 36 l 520 718 b 644 808 538 772 588 808 l 944 808 b 972 783 958 808 971 798 b 945 754 974 767 961 754 l 775 754 b 713 709 747 754 722 736 l 506 86 b 568 0 492 43 523 0 l 777 0 b 901 89 833 0 883 36 l 1163 887 b 1102 972 1177 929 1146 972 l 304 972 b 186 898 253 972 208 943 b 180 883 184 893 182 888 l -82 85 b -21 0 -96 43 -65 0 "},"O":{"ha":1075,"x_min":0,"x_max":0,"o":"m 1009 972 b 1133 802 1098 972 1160 886 l 898 89 b 775 0 880 36 831 0 l 66 0 b -57 171 -22 0 -85 87 l 177 883 b 301 972 195 936 245 972 l 1009 972 m 977 722 b 915 808 991 764 959 808 l 642 808 b 518 719 586 808 536 772 l 363 250 b 424 164 349 208 380 164 l 699 164 b 823 254 755 164 805 200 l 977 722 "},"Ò":{"ha":1075,"x_min":0,"x_max":0,"o":"m 1009 972 l 301 972 b 177 883 245 972 195 936 l -57 171 b 66 0 -85 87 -22 0 l 775 0 b 898 89 831 0 880 36 l 1133 802 b 1009 972 1160 886 1098 972 m 977 722 l 823 254 b 699 164 805 200 755 164 l 424 164 b 363 250 380 164 349 208 l 518 719 b 642 808 536 772 586 808 l 915 808 b 977 722 959 808 991 764 "},"Ó":{"ha":1075,"x_min":0,"x_max":0,"o":"m 1009 972 b 1133 802 1098 972 1160 886 l 898 89 b 775 0 880 36 831 0 l 66 0 b -57 171 -22 0 -85 87 l 177 883 b 301 972 195 936 245 972 l 1009 972 m 977 722 b 915 808 991 764 959 808 l 642 808 b 518 719 586 808 536 772 l 363 250 b 424 164 349 208 380 164 l 699 164 b 823 254 755 164 805 200 l 977 722 "},"Ô":{"ha":1075,"x_min":0,"x_max":0,"o":"m 1009 972 l 301 972 b 177 883 245 972 195 936 l -57 171 b 66 0 -85 87 -22 0 l 775 0 b 898 89 831 0 880 36 l 1133 802 b 1009 972 1160 886 1098 972 m 977 722 l 823 254 b 699 164 805 200 755 164 l 424 164 b 363 250 380 164 349 208 l 518 719 b 642 808 536 772 586 808 l 915 808 b 977 722 959 808 991 764 "},"Õ":{"ha":1075,"x_min":0,"x_max":0,"o":"m 1009 972 b 1133 802 1098 972 1160 886 l 898 89 b 775 0 880 36 831 0 l 66 0 b -57 171 -22 0 -85 87 l 177 883 b 301 972 195 936 245 972 l 1009 972 m 977 722 b 915 808 991 764 959 808 l 642 808 b 518 719 586 808 536 772 l 363 250 b 424 164 349 208 380 164 l 699 164 b 823 254 755 164 805 200 l 977 722 "},"Ö":{"ha":1075,"x_min":0,"x_max":0,"o":"m 1009 972 l 301 972 b 177 883 245 972 195 936 l -57 171 b 66 0 -85 87 -22 0 l 775 0 b 898 89 831 0 880 36 l 1133 802 b 1009 972 1160 886 1098 972 m 977 722 l 823 254 b 699 164 805 200 755 164 l 424 164 b 363 250 380 164 349 208 l 518 719 b 642 808 536 772 586 808 l 915 808 b 977 722 959 808 991 764 "},"Ø":{"ha":1075,"x_min":0,"x_max":0,"o":"m 1009 972 b 1133 802 1098 972 1160 886 l 898 89 b 775 0 880 36 831 0 l 66 0 b -57 171 -22 0 -85 87 l 177 883 b 301 972 195 936 245 972 l 1009 972 m 977 722 b 915 808 991 764 959 808 l 642 808 b 518 719 586 808 536 772 l 363 250 b 424 164 349 208 380 164 l 699 164 b 823 254 755 164 805 200 l 977 722 "},"P":{"ha":1044,"x_min":0,"x_max":0,"o":"m 1024 477 b 901 387 1007 423 957 387 l 406 387 b 406 387 406 387 406 387 l 293 45 b 231 0 284 18 259 0 l -25 0 b -87 85 -69 0 -100 43 l 37 462 b 161 552 55 516 105 552 l 892 552 b 919 581 907 552 920 565 b 890 606 917 595 904 606 l 175 606 b 113 691 130 606 99 649 l 176 883 b 299 972 194 936 243 972 l 1008 972 b 1131 802 1096 972 1159 886 l 1024 477 "},"Q":{"ha":1144,"x_min":0,"x_max":0,"o":"m 1010 974 b 1134 804 1099 974 1162 888 l 924 167 l 956 167 b 1018 81 1000 167 1031 123 l 951 -122 b 889 -167 942 -149 917 -167 l 818 -167 l 816 -161 l 814 -167 l 614 -167 b 584 -124 592 -167 577 -145 l 600 -74 b 631 -52 604 -61 617 -52 l 710 -52 b 737 -22 726 -52 738 -38 b 708 2 735 -8 722 2 l 68 2 b -56 173 -21 2 -84 89 l 179 885 b 302 974 196 938 246 974 l 1010 974 m 978 725 b 916 810 992 767 961 810 l 643 810 b 520 721 587 810 537 774 l 364 252 b 426 167 350 210 381 167 l 677 167 l 718 291 b 780 335 727 317 751 335 l 850 335 l 978 725 "},"R":{"ha":1107,"x_min":0,"x_max":0,"o":"m 1008 972 b 1131 802 1096 972 1159 886 l 1024 477 b 901 387 1007 423 957 387 l 861 387 l 960 85 b 899 0 974 43 943 0 l 642 0 b 581 45 614 0 589 18 l 468 387 b 468 387 468 387 468 387 l 406 387 b 406 387 406 387 406 387 l 293 45 b 231 0 284 18 259 0 l -25 0 b -87 85 -69 0 -100 43 l 38 462 b 161 552 55 516 105 552 l 892 552 b 919 581 907 552 920 565 b 890 606 917 595 904 606 l 175 606 b 113 691 130 606 99 649 l 176 883 b 299 972 194 936 243 972 l 1008 972 "},"S":{"ha":1068,"x_min":0,"x_max":0,"o":"m 1008 972 b 1131 802 1096 972 1159 886 l 1081 650 b 1020 606 1073 624 1048 606 l 265 606 b 238 576 249 606 236 592 b 266 552 239 562 252 552 l 869 552 b 993 381 958 552 1020 465 l 897 89 b 773 0 879 36 829 0 l -25 0 b -87 85 -69 0 -100 43 l -35 243 b 89 333 -17 297 33 333 l 794 333 b 821 362 810 333 822 346 b 792 387 819 377 807 387 l 102 387 b 41 472 58 387 27 430 l 176 883 b 299 972 194 936 243 972 l 1008 972 "},"T":{"ha":824,"x_min":0,"x_max":0,"o":"m 891 974 b 953 889 935 974 967 931 l 875 653 b 813 608 866 626 841 608 l 451 608 l 361 338 l 469 338 b 530 253 513 338 544 295 l 476 89 b 353 0 458 36 409 0 l 181 0 b 119 85 137 0 105 43 l 291 608 l 133 608 b 71 693 89 608 57 651 l 134 885 b 258 974 152 938 202 974 l 891 974 "},"U":{"ha":1081,"x_min":0,"x_max":0,"o":"m 1102 972 b 1163 887 1146 972 1177 929 l 901 89 b 895 74 899 84 897 79 b 777 0 873 29 828 0 l -21 0 b -82 85 -65 0 -96 43 l 180 883 b 304 972 198 936 247 972 l 513 972 b 575 887 558 972 589 929 l 368 263 b 306 219 359 237 334 219 l 136 219 b 109 189 120 219 107 205 b 137 164 110 175 123 164 l 437 164 b 561 254 493 164 543 200 l 768 883 b 891 972 785 936 835 972 l 1102 972 "},"Ù":{"ha":1081,"x_min":0,"x_max":0,"o":"m 1102 972 l 891 972 b 768 883 835 972 785 936 l 561 254 b 437 164 543 200 493 164 l 137 164 b 109 189 123 164 110 175 b 136 219 107 205 120 219 l 306 219 b 368 263 334 219 359 237 l 575 887 b 513 972 589 929 558 972 l 304 972 b 180 883 247 972 198 936 l -82 85 b -21 0 -96 43 -65 0 l 777 0 b 895 74 828 0 873 29 b 901 89 897 79 899 84 l 1163 887 b 1102 972 1177 929 1146 972 "},"Ú":{"ha":1081,"x_min":0,"x_max":0,"o":"m 1102 972 b 1163 887 1146 972 1177 929 l 901 89 b 895 74 899 84 897 79 b 777 0 873 29 828 0 l -21 0 b -82 85 -65 0 -96 43 l 180 883 b 304 972 198 936 247 972 l 513 972 b 575 887 558 972 589 929 l 368 263 b 306 219 359 237 334 219 l 136 219 b 109 189 120 219 107 205 b 137 164 110 175 123 164 l 437 164 b 561 254 493 164 543 200 l 768 883 b 891 972 785 936 835 972 l 1102 972 "},"Û":{"ha":1081,"x_min":0,"x_max":0,"o":"m 1102 972 l 891 972 b 768 883 835 972 785 936 l 561 254 b 437 164 543 200 493 164 l 137 164 b 109 189 123 164 110 175 b 136 219 107 205 120 219 l 306 219 b 368 263 334 219 359 237 l 575 887 b 513 972 589 929 558 972 l 304 972 b 180 883 247 972 198 936 l -82 85 b -21 0 -96 43 -65 0 l 777 0 b 895 74 828 0 873 29 b 901 89 897 79 899 84 l 1163 887 b 1102 972 1177 929 1146 972 "},"Ü":{"ha":1081,"x_min":0,"x_max":0,"o":"m 1102 972 b 1163 887 1146 972 1177 929 l 901 89 b 895 74 899 84 897 79 b 777 0 873 29 828 0 l -21 0 b -82 85 -65 0 -96 43 l 180 883 b 304 972 198 936 247 972 l 513 972 b 575 887 558 972 589 929 l 368 263 b 306 219 359 237 334 219 l 136 219 b 109 189 120 219 107 205 b 137 164 110 175 123 164 l 437 164 b 561 254 493 164 543 200 l 768 883 b 891 972 785 936 835 972 l 1102 972 "},"V":{"ha":901,"x_min":0,"x_max":0,"o":"m 923 972 b 984 887 967 972 998 929 l 722 89 b 598 0 704 36 654 0 l 400 0 b 283 74 350 0 305 29 b 277 89 281 79 279 84 l 88 663 b 88 745 79 690 79 718 l 149 928 b 211 972 158 954 183 972 l 469 972 b 531 887 514 972 545 929 l 361 375 b 379 340 356 360 364 344 b 413 359 394 336 408 345 l 587 883 b 710 972 605 936 654 972 l 923 972 "},"W":{"ha":1265,"x_min":0,"x_max":0,"o":"m 67 0 b -57 171 -22 -1 -85 86 l 192 926 b 253 971 200 953 225 971 l 515 971 b 577 885 560 971 591 927 l 416 401 b 443 367 410 383 424 365 b 466 386 454 368 463 376 l 530 579 b 592 623 539 605 564 623 l 621 623 b 683 538 665 623 697 580 l 654 452 b 716 367 640 410 672 367 l 733 367 b 795 411 761 367 786 385 l 950 881 b 1073 971 967 935 1017 971 l 1288 971 b 1350 885 1332 971 1364 927 l 1085 89 b 962 0 1067 36 1018 0 l 659 0 b 552 143 585 0 531 72 l 534 89 b 410 0 516 36 466 0 l 207 0 b 200 1 204 0 202 0 b 67 0 196 0 67 0 "},"X":{"ha":960,"x_min":0,"x_max":0,"o":"m 984 972 b 1046 887 1029 972 1060 929 l 911 477 b 787 387 893 423 844 387 l 703 387 b 826 217 791 387 854 301 l 784 89 b 661 0 767 36 717 0 l 450 0 b 389 85 406 0 375 43 l 460 302 b 462 308 461 304 461 306 b 389 326 472 354 403 371 l 296 45 b 234 0 287 18 262 0 l -22 0 b -84 85 -66 0 -98 43 l 40 462 b 164 552 58 516 108 552 l 159 552 b 98 637 115 552 84 595 l 179 883 b 302 972 196 936 246 972 l 513 972 b 574 887 557 972 588 929 l 511 695 b 388 606 494 642 444 606 l 250 606 b 221 582 236 606 223 596 b 248 552 220 565 232 552 l 778 552 b 805 581 794 552 807 565 b 776 606 804 595 791 606 l 648 606 b 586 691 603 606 572 649 l 649 883 b 773 972 667 936 716 972 l 984 972 "},"Y":{"ha":929,"x_min":0,"x_max":0,"o":"m 952 972 b 1014 887 996 972 1028 929 l 750 89 b 627 0 733 36 683 0 l 418 0 b 356 85 374 0 342 43 l 427 302 b 366 387 441 344 410 387 l 163 387 b 39 558 74 387 12 474 l 146 883 b 270 972 164 936 214 972 l 480 972 b 542 887 525 972 556 929 l 479 695 b 355 606 461 642 412 606 l 217 606 b 189 582 203 606 190 596 b 216 552 187 565 200 552 l 746 552 b 773 581 762 552 774 565 b 744 606 772 595 759 606 l 615 606 b 554 691 571 606 540 649 l 617 883 b 740 972 634 936 684 972 "},"Ý":{"ha":929,"x_min":0,"x_max":0,"o":"m 740 972 b 617 883 684 972 634 936 l 554 691 b 615 606 540 649 571 606 l 744 606 b 773 581 759 606 772 595 b 746 552 774 565 762 552 l 216 552 b 189 582 200 552 187 565 b 217 606 190 596 203 606 l 355 606 b 479 695 412 606 461 642 l 542 887 b 480 972 556 929 525 972 l 270 972 b 146 883 214 972 164 936 l 39 558 b 163 387 12 474 74 387 l 366 387 b 427 302 410 387 441 344 l 356 85 b 418 0 342 43 374 0 l 627 0 b 750 89 683 0 733 36 l 1014 887 b 952 972 1028 929 996 972 "},"Ÿ":{"ha":929,"x_min":0,"x_max":0,"o":"m 952 972 b 1014 887 996 972 1028 929 l 750 89 b 627 0 733 36 683 0 l 418 0 b 356 85 374 0 342 43 l 427 302 b 366 387 441 344 410 387 l 163 387 b 39 558 74 387 12 474 l 146 883 b 270 972 164 936 214 972 l 480 972 b 542 887 525 972 556 929 l 479 695 b 355 606 461 642 412 606 l 217 606 b 189 582 203 606 190 596 b 216 552 187 565 200 552 l 746 552 b 773 581 762 552 774 565 b 744 606 772 595 759 606 l 615 606 b 554 691 571 606 540 649 l 617 883 b 740 972 634 936 684 972 "},"Z":{"ha":1051,"x_min":0,"x_max":0,"o":"m 1088 972 b 1150 887 1132 972 1163 929 l 1077 665 b 998 584 1064 628 1035 598 l 81 246 b 66 208 66 240 59 223 b 101 195 72 195 88 190 l 474 333 l 877 333 b 939 247 921 333 953 289 l 887 89 b 763 0 869 36 820 0 l -35 0 b -96 85 -79 0 -110 43 l -35 273 b 44 354 -22 310 7 341 l 736 606 l 165 606 b 103 691 121 606 89 649 l 166 883 b 290 972 184 936 234 972 l 1088 972 "},"a":{"ha":1065,"x_min":0,"x_max":0,"o":"m 976 806 b 1099 635 1064 806 1127 719 l 919 89 b 796 0 902 36 852 0 l -2 0 b -64 85 -46 0 -78 43 l -12 242 b 111 332 5 296 55 332 l 531 332 b 562 289 553 332 569 310 l 555 266 b 493 221 546 239 521 221 l 368 221 b 341 197 354 221 343 211 b 369 167 339 180 353 167 l 533 167 b 594 211 561 167 585 185 l 625 305 b 564 391 639 347 608 391 l 126 391 b 65 476 82 391 51 434 l 144 717 b 268 806 162 770 211 806 l 976 806 "},"à":{"ha":1065,"x_min":0,"x_max":0,"o":"m 976 806 l 268 806 b 144 717 211 806 162 770 l 65 476 b 126 391 51 434 82 391 l 564 391 b 625 305 608 391 639 347 l 594 211 b 533 167 585 185 561 167 l 369 167 b 341 197 353 167 339 180 b 368 221 343 211 354 221 l 493 221 b 555 266 521 221 546 239 l 562 289 b 531 332 569 310 553 332 l 111 332 b -12 242 55 332 5 296 l -64 85 b -2 0 -78 43 -46 0 l 796 0 b 919 89 852 0 902 36 l 1099 635 b 976 806 1127 719 1064 806 "},"á":{"ha":1065,"x_min":0,"x_max":0,"o":"m 976 806 b 1099 635 1064 806 1127 719 l 919 89 b 796 0 902 36 852 0 l -2 0 b -64 85 -46 0 -78 43 l -12 242 b 111 332 5 296 55 332 l 531 332 b 562 289 553 332 569 310 l 555 266 b 493 221 546 239 521 221 l 368 221 b 341 197 354 221 343 211 b 369 167 339 180 353 167 l 533 167 b 594 211 561 167 585 185 l 625 305 b 564 391 639 347 608 391 l 126 391 b 65 476 82 391 51 434 l 144 717 b 268 806 162 770 211 806 l 976 806 "},"â":{"ha":1065,"x_min":0,"x_max":0,"o":"m 976 806 l 268 806 b 144 717 211 806 162 770 l 65 476 b 126 391 51 434 82 391 l 564 391 b 625 305 608 391 639 347 l 594 211 b 533 167 585 185 561 167 l 369 167 b 341 197 353 167 339 180 b 368 221 343 211 354 221 l 493 221 b 555 266 521 221 546 239 l 562 289 b 531 332 569 310 553 332 l 111 332 b -12 242 55 332 5 296 l -64 85 b -2 0 -78 43 -46 0 l 796 0 b 919 89 852 0 902 36 l 1099 635 b 976 806 1127 719 1064 806 "},"ã":{"ha":1065,"x_min":0,"x_max":0,"o":"m 976 806 b 1099 635 1064 806 1127 719 l 919 89 b 796 0 902 36 852 0 l -2 0 b -64 85 -46 0 -78 43 l -12 242 b 111 332 5 296 55 332 l 531 332 b 562 289 553 332 569 310 l 555 266 b 493 221 546 239 521 221 l 368 221 b 341 197 354 221 343 211 b 369 167 339 180 353 167 l 533 167 b 594 211 561 167 585 185 l 625 305 b 564 391 639 347 608 391 l 126 391 b 65 476 82 391 51 434 l 144 717 b 268 806 162 770 211 806 l 976 806 "},"ä":{"ha":1065,"x_min":0,"x_max":0,"o":"m 976 806 l 268 806 b 144 717 211 806 162 770 l 65 476 b 126 391 51 434 82 391 l 564 391 b 625 305 608 391 639 347 l 594 211 b 533 167 585 185 561 167 l 369 167 b 341 197 353 167 339 180 b 368 221 343 211 354 221 l 493 221 b 555 266 521 221 546 239 l 562 289 b 531 332 569 310 553 332 l 111 332 b -12 242 55 332 5 296 l -64 85 b -2 0 -78 43 -46 0 l 796 0 b 919 89 852 0 902 36 l 1099 635 b 976 806 1127 719 1064 806 "},"å":{"ha":1065,"x_min":0,"x_max":0,"o":"m 976 806 b 1099 635 1064 806 1127 719 l 919 89 b 796 0 902 36 852 0 l -2 0 b -64 85 -46 0 -78 43 l -12 242 b 111 332 5 296 55 332 l 531 332 b 562 289 553 332 569 310 l 555 266 b 493 221 546 239 521 221 l 368 221 b 341 197 354 221 343 211 b 369 167 339 180 353 167 l 533 167 b 594 211 561 167 585 185 l 625 305 b 564 391 639 347 608 391 l 126 391 b 65 476 82 391 51 434 l 144 717 b 268 806 162 770 211 806 l 976 806 "},"b":{"ha":1044,"x_min":0,"x_max":0,"o":"m 893 552 b 1017 381 982 552 1045 465 l 921 89 b 797 0 903 36 854 0 l -1 0 b -62 85 -45 0 -76 43 l -10 243 b 113 333 7 297 57 333 l 818 333 b 845 362 834 333 847 346 b 817 387 844 377 831 387 l 127 387 b 65 472 82 387 51 430 l 200 883 b 206 898 202 888 204 893 b 324 972 228 943 273 972 l 534 972 b 596 887 578 972 610 929 l 485 552 l 893 552 "},"c":{"ha":1057,"x_min":0,"x_max":0,"o":"m 911 539 b 938 568 927 539 940 552 b 910 593 937 583 924 593 l 542 593 b 419 504 486 593 436 557 l 332 223 b 372 168 323 196 343 168 l 868 168 b 925 90 909 168 938 128 b 802 0 908 36 858 0 l 3 0 b -58 85 -41 0 -72 43 l 148 717 b 271 806 165 770 215 806 l 980 806 b 1103 635 1068 806 1131 719 l 1037 435 b 975 391 1028 409 1003 391 l 718 391 b 656 476 674 391 642 434 l 662 494 b 724 539 671 521 696 539 l 911 539 "},"ç":{"ha":1057,"x_min":0,"x_max":0,"o":"m 911 539 l 724 539 b 662 494 696 539 671 521 l 656 476 b 718 391 642 434 674 391 l 975 391 b 1037 435 1003 391 1028 409 l 1103 635 b 980 806 1131 719 1068 806 l 271 806 b 148 717 215 806 165 770 l -58 85 b 3 0 -72 43 -41 0 l 802 0 b 925 90 858 0 908 36 b 868 168 938 128 909 168 l 372 168 b 332 223 343 168 323 196 l 419 504 b 542 593 436 557 486 593 l 910 593 b 938 568 924 593 937 583 b 911 539 940 552 927 539 "},"d":{"ha":1051,"x_min":0,"x_max":0,"o":"m 1106 972 b 1168 887 1151 972 1182 929 l 1033 476 b 909 387 1015 423 966 387 l 205 387 b 178 357 189 387 176 373 b 206 333 179 343 192 333 l 896 333 b 958 247 940 333 971 289 l 906 89 b 782 0 888 36 838 0 l -16 0 b -78 85 -60 0 -92 43 l 46 462 b 170 552 64 516 114 552 l 663 552 l 773 883 b 779 898 774 888 776 893 b 896 972 800 943 845 972 l 1106 972 "},"e":{"ha":1067,"x_min":0,"x_max":0,"o":"m 372 168 l 868 168 b 925 89 909 168 938 128 b 802 0 907 36 858 0 l 3 0 b -58 85 -41 0 -72 43 l 150 717 b 273 806 167 770 217 806 l 981 806 b 1105 635 1070 806 1133 719 l 998 310 b 874 221 980 257 930 221 l 434 221 b 403 263 412 221 396 242 l 410 287 b 472 331 419 313 444 331 l 570 331 b 631 376 598 331 623 349 l 638 397 b 607 440 645 418 630 440 l 450 440 b 389 395 422 440 397 422 l 332 223 b 372 168 323 196 343 168 "},"è":{"ha":1067,"x_min":0,"x_max":0,"o":"m 372 168 b 332 223 343 168 323 196 l 389 395 b 450 440 397 422 422 440 l 607 440 b 638 397 630 440 645 418 l 631 376 b 570 331 623 349 598 331 l 472 331 b 410 287 444 331 419 313 l 403 263 b 434 221 396 242 412 221 l 874 221 b 998 310 930 221 980 257 l 1105 635 b 981 806 1133 719 1070 806 l 273 806 b 150 717 217 806 167 770 l -58 85 b 3 0 -72 43 -41 0 l 802 0 b 925 89 858 0 907 36 b 868 168 938 128 909 168 l 372 168 "},"é":{"ha":1067,"x_min":0,"x_max":0,"o":"m 372 168 l 868 168 b 925 89 909 168 938 128 b 802 0 907 36 858 0 l 3 0 b -58 85 -41 0 -72 43 l 150 717 b 273 806 167 770 217 806 l 981 806 b 1105 635 1070 806 1133 719 l 998 310 b 874 221 980 257 930 221 l 434 221 b 403 263 412 221 396 242 l 410 287 b 472 331 419 313 444 331 l 570 331 b 631 376 598 331 623 349 l 638 397 b 607 440 645 418 630 440 l 450 440 b 389 395 422 440 397 422 l 332 223 b 372 168 323 196 343 168 "},"ê":{"ha":1067,"x_min":0,"x_max":0,"o":"m 372 168 b 332 223 343 168 323 196 l 389 395 b 450 440 397 422 422 440 l 607 440 b 638 397 630 440 645 418 l 631 376 b 570 331 623 349 598 331 l 472 331 b 410 287 444 331 419 313 l 403 263 b 434 221 396 242 412 221 l 874 221 b 998 310 930 221 980 257 l 1105 635 b 981 806 1133 719 1070 806 l 273 806 b 150 717 217 806 167 770 l -58 85 b 3 0 -72 43 -41 0 l 802 0 b 925 89 858 0 907 36 b 868 168 938 128 909 168 l 372 168 "},"ë":{"ha":1067,"x_min":0,"x_max":0,"o":"m 372 168 l 868 168 b 925 89 909 168 938 128 b 802 0 907 36 858 0 l 3 0 b -58 85 -41 0 -72 43 l 150 717 b 273 806 167 770 217 806 l 981 806 b 1105 635 1070 806 1133 719 l 998 310 b 874 221 980 257 930 221 l 434 221 b 403 263 412 221 396 242 l 410 287 b 472 331 419 313 444 331 l 570 331 b 631 376 598 331 623 349 l 638 397 b 607 440 645 418 630 440 l 450 440 b 389 395 422 440 397 422 l 332 223 b 372 168 323 196 343 168 "},"f":{"ha":1135,"x_min":0,"x_max":0,"o":"m 1065 808 b 1188 637 1153 808 1216 721 l 1153 531 b 1030 441 1136 477 1086 441 l 301 441 b 274 412 285 441 272 428 b 302 387 275 397 288 387 l 1016 387 b 1078 302 1060 387 1092 344 l 1066 267 b 1005 223 1058 241 1033 223 l 379 223 b 352 193 363 223 350 209 b 380 169 353 179 365 168 b 426 106 412 169 436 137 l 405 45 b 344 0 397 18 372 0 l 86 0 b 24 85 42 0 11 43 l 71 226 l 35 226 b -27 312 -10 226 -41 270 l -16 345 b 46 390 -7 372 17 390 l 125 390 l 233 718 b 356 808 251 772 300 808 l 1065 808 "},"g":{"ha":1067,"x_min":0,"x_max":0,"o":"m 1066 810 b 1128 725 1111 810 1142 767 l 1050 484 b 926 395 1032 431 982 395 l 221 395 b 194 365 205 395 192 381 b 223 340 195 351 208 340 l 912 340 b 974 255 957 340 988 297 l 864 -77 b 858 -92 862 -82 860 -87 b 824 -136 850 -109 838 -124 b 821 -139 823 -137 822 -138 b 817 -141 820 -139 819 -140 b 740 -167 796 -157 769 -167 l 32 -167 b -92 4 -57 -167 -119 -80 l -82 32 b 41 122 -65 86 -15 122 l 296 122 b 327 79 319 122 334 100 l 317 48 b 255 3 308 21 283 3 l 68 3 b 41 -27 52 3 39 -11 b 69 -51 42 -41 55 -51 l 437 -51 b 560 38 493 -51 543 -15 l 587 121 l 744 121 b 771 148 759 121 771 133 b 744 175 771 163 759 175 l 146 175 b 22 346 57 175 -5 262 l 145 721 b 268 810 162 774 212 810 l 1066 810 "},"h":{"ha":1057,"x_min":0,"x_max":0,"o":"m 987 552 b 1049 466 1032 552 1063 508 l 910 45 b 849 0 902 18 877 0 l 591 0 b 529 85 547 0 515 43 l 596 288 b 658 333 605 315 630 333 l 847 333 b 874 363 863 333 876 347 b 846 387 873 377 860 387 l 435 387 l 323 45 b 261 0 314 18 289 0 l 3 0 b -58 85 -41 0 -72 43 l 204 883 b 211 898 206 888 208 893 b 328 972 232 943 277 972 l 538 972 b 600 887 583 972 614 929 l 490 552 l 987 552 "},"i":{"ha":607,"x_min":0,"x_max":0,"o":"m 171 552 b 109 637 127 552 95 595 l 136 717 b 259 806 153 770 203 806 l 400 806 b 461 721 444 806 475 763 l 420 596 b 358 552 411 570 386 552 l 171 552 m 464 239 b 526 154 508 239 539 196 l 490 45 b 428 0 481 18 456 0 l -6 0 b -68 85 -51 0 -82 43 l -5 277 b 119 366 13 330 62 366 l 257 366 b 319 281 302 366 333 323 l 305 239 l 464 239 "},"ì":{"ha":607,"x_min":0,"x_max":0,"o":"m 171 552 l 358 552 b 420 596 386 552 411 570 l 461 721 b 400 806 475 763 444 806 l 259 806 b 136 717 203 806 153 770 l 109 637 b 171 552 95 595 127 552 m 464 239 l 305 239 l 319 281 b 257 366 333 323 302 366 l 119 366 b -5 277 62 366 13 330 l -68 85 b -6 0 -82 43 -51 0 l 428 0 b 490 45 456 0 481 18 l 526 154 b 464 239 539 196 508 239 "},"í":{"ha":607,"x_min":0,"x_max":0,"o":"m 171 552 b 109 637 127 552 95 595 l 136 717 b 259 806 153 770 203 806 l 400 806 b 461 721 444 806 475 763 l 420 596 b 358 552 411 570 386 552 l 171 552 m 464 239 b 526 154 508 239 539 196 l 490 45 b 428 0 481 18 456 0 l -6 0 b -68 85 -51 0 -82 43 l -5 277 b 119 366 13 330 62 366 l 257 366 b 319 281 302 366 333 323 l 305 239 l 464 239 "},"î":{"ha":607,"x_min":0,"x_max":0,"o":"m 171 552 l 358 552 b 420 596 386 552 411 570 l 461 721 b 400 806 475 763 444 806 l 259 806 b 136 717 203 806 153 770 l 109 637 b 171 552 95 595 127 552 m 464 239 l 305 239 l 319 281 b 257 366 333 323 302 366 l 119 366 b -5 277 62 366 13 330 l -68 85 b -6 0 -82 43 -51 0 l 428 0 b 490 45 456 0 481 18 l 526 154 b 464 239 539 196 508 239 "},"ï":{"ha":607,"x_min":0,"x_max":0,"o":"m 171 552 b 109 637 127 552 95 595 l 136 717 b 259 806 153 770 203 806 l 400 806 b 461 721 444 806 475 763 l 420 596 b 358 552 411 570 386 552 l 171 552 m 464 239 b 526 154 508 239 539 196 l 490 45 b 428 0 481 18 456 0 l -6 0 b -68 85 -51 0 -82 43 l -5 277 b 119 366 13 330 62 366 l 257 366 b 319 281 302 366 333 323 l 305 239 l 464 239 "},"j":{"ha":454,"x_min":0,"x_max":0,"o":"m 461 810 b 523 725 505 810 537 767 l 481 601 b 419 556 472 574 447 556 l 211 556 b 149 641 166 556 135 599 l 176 721 b 299 810 193 774 243 810 l 461 810 m 318 371 b 380 285 362 371 394 327 l 260 -77 b 253 -92 258 -82 256 -87 b 220 -136 245 -109 234 -124 b 216 -139 219 -137 217 -138 b 213 -141 215 -139 214 -140 b 136 -167 191 -157 164 -167 l -662 -167 b -724 -81 -707 -167 -738 -123 l -714 -51 l -174 -51 b -50 38 -118 -51 -68 -15 l 35 281 b 158 371 52 335 102 371 l 318 371 "},"k":{"ha":1031,"x_min":0,"x_max":0,"o":"m 844 387 b 968 217 933 387 996 301 l 926 89 b 803 0 909 36 859 0 l 592 0 b 530 85 548 0 517 43 l 602 302 b 540 387 616 344 584 387 l 436 387 l 323 45 b 261 0 314 18 289 0 l 3 0 b -49 27 -19 0 -38 11 b -59 47 -54 33 -57 40 b -61 69 -61 54 -62 62 b -58 85 -61 75 -60 80 l 204 883 b 211 898 206 888 208 893 b 328 972 232 943 277 972 l 538 972 b 600 887 583 972 614 929 l 534 686 b 631 552 512 620 561 552 l 774 552 b 801 581 789 552 802 565 b 772 606 799 596 786 606 l 643 606 b 581 691 599 606 567 649 l 593 728 b 717 817 611 781 661 817 l 929 817 b 990 732 973 817 1004 774 l 906 477 b 796 388 890 427 846 393 l 796 387 l 844 387 "},"l":{"ha":610,"x_min":0,"x_max":0,"o":"m 538 972 b 600 887 583 972 614 929 l 387 241 l 476 241 b 538 156 520 241 552 198 l 502 46 b 440 2 493 20 468 2 l 309 2 l 308 0 l 3 0 b -58 85 -41 0 -72 43 l 80 507 l 204 883 b 211 898 206 888 208 893 b 328 972 232 943 277 972 l 538 972 "},"m":{"ha":1158,"x_min":0,"x_max":0,"o":"m 1069 806 b 1193 635 1158 806 1221 719 l 1011 89 b 888 0 993 36 944 0 l 675 0 b 613 85 631 0 599 43 l 696 337 l 767 337 b 794 367 783 337 796 350 b 766 391 793 381 780 391 l 707 391 b 645 346 679 391 654 373 l 602 212 b 540 167 593 185 568 167 l 511 167 b 449 253 467 167 435 211 l 481 348 b 450 391 488 369 472 391 l 367 391 b 340 361 351 391 339 377 b 369 337 342 347 354 337 l 422 337 l 340 89 b 216 0 322 36 272 0 l 3 0 b -58 85 -41 0 -72 43 l 164 761 b 226 806 173 788 198 806 l 459 806 b 573 648 541 806 599 726 l 596 717 b 720 806 614 770 664 806 l 1069 806 "},"n":{"ha":1074,"x_min":0,"x_max":0,"o":"m 337 89 b 214 0 320 36 270 0 l 3 0 b -58 85 -41 0 -72 43 l 150 718 b 156 734 152 724 154 729 b 274 808 178 779 223 808 l 1072 808 b 1133 722 1116 808 1147 765 l 925 89 b 802 0 907 36 858 0 l 592 0 b 531 86 548 0 517 43 l 626 371 b 688 415 635 397 660 415 l 858 415 b 885 445 874 415 887 429 b 857 469 884 459 871 469 l 463 469 l 337 89 "},"ñ":{"ha":1074,"x_min":0,"x_max":0,"o":"m 337 89 l 463 469 l 857 469 b 885 445 871 469 884 459 b 858 415 887 429 874 415 l 688 415 b 626 371 660 415 635 397 l 531 86 b 592 0 517 43 548 0 l 802 0 b 925 89 858 0 907 36 l 1133 722 b 1072 808 1147 765 1116 808 l 274 808 b 156 734 223 808 178 779 b 150 718 154 729 152 724 l -58 85 b 3 0 -72 43 -41 0 l 214 0 b 337 89 270 0 320 36 "},"o":{"ha":1071,"x_min":0,"x_max":0,"o":"m 982 808 b 1105 637 1070 808 1133 721 l 925 89 b 802 0 907 36 858 0 l 3 0 b -58 85 -41 0 -72 43 l 150 718 b 274 808 168 772 218 808 l 982 808 m 950 558 b 888 643 964 600 932 643 l 615 643 b 491 554 559 643 509 607 l 390 250 b 451 164 376 208 407 164 l 726 164 b 850 254 782 164 832 200 l 950 558 "},"ò":{"ha":1071,"x_min":0,"x_max":0,"o":"m 982 808 l 274 808 b 150 718 218 808 168 772 l -58 85 b 3 0 -72 43 -41 0 l 802 0 b 925 89 858 0 907 36 l 1105 637 b 982 808 1133 721 1070 808 m 950 558 l 850 254 b 726 164 832 200 782 164 l 451 164 b 390 250 407 164 376 208 l 491 554 b 615 643 509 607 559 643 l 888 643 b 950 558 932 643 964 600 "},"ó":{"ha":1071,"x_min":0,"x_max":0,"o":"m 982 808 b 1105 637 1070 808 1133 721 l 925 89 b 802 0 907 36 858 0 l 3 0 b -58 85 -41 0 -72 43 l 150 718 b 274 808 168 772 218 808 l 982 808 m 950 558 b 888 643 964 600 932 643 l 615 643 b 491 554 559 643 509 607 l 390 250 b 451 164 376 208 407 164 l 726 164 b 850 254 782 164 832 200 l 950 558 "},"ô":{"ha":1071,"x_min":0,"x_max":0,"o":"m 982 808 l 274 808 b 150 718 218 808 168 772 l -58 85 b 3 0 -72 43 -41 0 l 802 0 b 925 89 858 0 907 36 l 1105 637 b 982 808 1133 721 1070 808 m 950 558 l 850 254 b 726 164 832 200 782 164 l 451 164 b 390 250 407 164 376 208 l 491 554 b 615 643 509 607 559 643 l 888 643 b 950 558 932 643 964 600 "},"õ":{"ha":1071,"x_min":0,"x_max":0,"o":"m 982 808 b 1105 637 1070 808 1133 721 l 925 89 b 802 0 907 36 858 0 l 3 0 b -58 85 -41 0 -72 43 l 150 718 b 274 808 168 772 218 808 l 982 808 m 950 558 b 888 643 964 600 932 643 l 615 643 b 491 554 559 643 509 607 l 390 250 b 451 164 376 208 407 164 l 726 164 b 850 254 782 164 832 200 l 950 558 "},"ö":{"ha":1071,"x_min":0,"x_max":0,"o":"m 982 808 l 274 808 b 150 718 218 808 168 772 l -58 85 b 3 0 -72 43 -41 0 l 802 0 b 925 89 858 0 907 36 l 1105 637 b 982 808 1133 721 1070 808 m 950 558 l 850 254 b 726 164 832 200 782 164 l 451 164 b 390 250 407 164 376 208 l 491 554 b 615 643 509 607 559 643 l 888 643 b 950 558 932 643 964 600 "},"ø":{"ha":1071,"x_min":0,"x_max":0,"o":"m 982 808 b 1105 637 1070 808 1133 721 l 925 89 b 802 0 907 36 858 0 l 3 0 b -58 85 -41 0 -72 43 l 150 718 b 274 808 168 772 218 808 l 982 808 m 950 558 b 888 643 964 600 932 643 l 615 643 b 491 554 559 643 509 607 l 390 250 b 451 164 376 208 407 164 l 726 164 b 850 254 782 164 832 200 l 950 558 "},"p":{"ha":1061,"x_min":0,"x_max":0,"o":"m -54 -167 b -116 -81 -98 -167 -130 -123 l -5 250 b 119 340 13 304 63 340 l 824 340 b 850 370 839 340 852 353 b 822 394 849 384 836 394 l 133 394 b 71 479 88 394 57 437 l 148 721 b 271 810 165 774 215 810 l 1069 810 b 1131 725 1114 810 1145 767 l 982 264 b 859 175 964 211 915 175 l 365 175 l 280 -77 b 273 -93 278 -83 276 -88 b 156 -167 252 -137 207 -167 l -54 -167 "},"q":{"ha":1054,"x_min":0,"x_max":0,"o":"m 133 175 b 10 346 45 175 -18 261 l 133 721 b 256 810 150 774 200 810 l 1054 810 b 1116 725 1098 810 1130 767 l 1037 483 b 914 394 1020 430 970 394 l 209 394 b 182 364 193 394 180 380 b 210 340 183 350 196 340 l 900 340 b 962 255 944 340 976 297 l 852 -77 b 845 -93 850 -83 848 -88 b 728 -167 824 -137 779 -167 l 518 -167 b 456 -81 474 -167 442 -123 l 541 175 l 133 175 "},"r":{"ha":885,"x_min":0,"x_max":0,"o":"m 911 807 b 973 722 956 807 987 764 l 879 437 b 817 392 870 410 845 392 l 223 392 b 194 368 208 392 196 382 b 221 338 193 351 205 338 l 329 338 b 391 252 374 338 405 294 l 338 90 b 215 0 320 37 271 0 l 3 0 b -58 85 -41 0 -72 43 l 164 758 b 231 807 173 788 200 807 l 911 807 "},"s":{"ha":1071,"x_min":0,"x_max":0,"o":"m 1072 808 b 1134 722 1116 808 1148 765 l 1039 437 b 978 393 1031 411 1006 393 l 265 393 b 237 372 252 393 241 384 b 265 333 231 353 245 333 l 916 333 b 977 248 960 333 991 290 l 925 89 b 802 0 908 36 858 0 l 3 0 b -58 85 -41 0 -72 43 l -45 125 b 17 170 -36 152 -12 170 l 538 170 b 565 194 551 170 563 180 b 537 223 566 210 553 223 l 71 223 b 9 309 26 223 -5 267 l 150 720 b 273 808 168 772 217 808 l 1072 808 "},"t":{"ha":803,"x_min":0,"x_max":0,"o":"m 640 721 l 813 721 b 875 636 858 721 889 678 l 864 601 b 802 556 855 574 830 556 l 586 556 l 482 241 l 571 241 b 632 156 615 241 646 198 l 596 46 b 535 2 588 20 563 2 l 403 2 l 402 0 l 98 0 b 36 85 54 0 22 43 l 191 556 l 132 556 b 70 641 87 556 56 599 l 81 676 b 143 721 90 703 115 721 l 245 721 l 299 883 b 305 898 301 888 303 893 b 422 972 326 943 372 972 l 633 972 b 694 887 677 972 708 929 l 640 721 "},"u":{"ha":1074,"x_min":0,"x_max":0,"o":"m 738 718 b 861 808 755 772 805 808 l 1072 808 b 1133 722 1116 808 1147 765 l 925 89 b 919 74 923 84 921 79 b 802 0 897 29 852 0 l 3 0 b -58 85 -41 0 -72 43 l 150 718 b 274 808 168 772 218 808 l 483 808 b 545 722 527 808 559 764 l 465 486 b 404 441 457 459 432 441 l 233 441 b 207 412 218 441 205 428 b 235 387 208 398 221 387 l 629 387 b 629 388 629 387 629 387 l 738 718 "},"ù":{"ha":1074,"x_min":0,"x_max":0,"o":"m 738 718 l 629 388 b 629 387 629 387 629 387 l 235 387 b 207 412 221 387 208 398 b 233 441 205 428 218 441 l 404 441 b 465 486 432 441 457 459 l 545 722 b 483 808 559 764 527 808 l 274 808 b 150 718 218 808 168 772 l -58 85 b 3 0 -72 43 -41 0 l 802 0 b 919 74 852 0 897 29 b 925 89 921 79 923 84 l 1133 722 b 1072 808 1147 765 1116 808 l 861 808 b 738 718 805 808 755 772 "},"ú":{"ha":1074,"x_min":0,"x_max":0,"o":"m 738 718 b 861 808 755 772 805 808 l 1072 808 b 1133 722 1116 808 1147 765 l 925 89 b 919 74 923 84 921 79 b 802 0 897 29 852 0 l 3 0 b -58 85 -41 0 -72 43 l 150 718 b 274 808 168 772 218 808 l 483 808 b 545 722 527 808 559 764 l 465 486 b 404 441 457 459 432 441 l 233 441 b 207 412 218 441 205 428 b 235 387 208 398 221 387 l 629 387 b 629 388 629 387 629 387 l 738 718 "},"û":{"ha":1074,"x_min":0,"x_max":0,"o":"m 738 718 l 629 388 b 629 387 629 387 629 387 l 235 387 b 207 412 221 387 208 398 b 233 441 205 428 218 441 l 404 441 b 465 486 432 441 457 459 l 545 722 b 483 808 559 764 527 808 l 274 808 b 150 718 218 808 168 772 l -58 85 b 3 0 -72 43 -41 0 l 802 0 b 919 74 852 0 897 29 b 925 89 921 79 923 84 l 1133 722 b 1072 808 1147 765 1116 808 l 861 808 b 738 718 805 808 755 772 "},"ü":{"ha":1074,"x_min":0,"x_max":0,"o":"m 738 718 b 861 808 755 772 805 808 l 1072 808 b 1133 722 1116 808 1147 765 l 925 89 b 919 74 923 84 921 79 b 802 0 897 29 852 0 l 3 0 b -58 85 -41 0 -72 43 l 150 718 b 274 808 168 772 218 808 l 483 808 b 545 722 527 808 559 764 l 465 486 b 404 441 457 459 432 441 l 233 441 b 207 412 218 441 205 428 b 235 387 208 398 221 387 l 629 387 b 629 388 629 387 629 387 l 738 718 "},"v":{"ha":1039,"x_min":0,"x_max":0,"o":"m 1037 808 b 1098 722 1081 808 1112 764 l 890 89 b 884 74 888 84 886 79 b 766 0 862 29 817 0 l 309 0 b 186 89 253 0 204 36 l 60 471 b 60 552 52 497 52 526 l 115 718 b 238 808 133 772 182 808 l 448 808 b 509 722 492 808 523 764 l 430 486 b 369 441 421 459 397 441 l 198 441 b 171 411 182 441 170 428 b 200 387 173 397 186 387 l 499 387 b 623 477 556 387 605 423 l 703 718 b 826 808 720 772 770 808 l 1037 808 "},"w":{"ha":1158,"x_min":0,"x_max":0,"o":"m 1156 806 b 1218 720 1200 806 1232 762 l 1008 89 b 885 0 990 36 941 0 l 682 0 b 575 143 607 0 554 72 l 557 89 b 433 0 539 36 489 0 l 90 0 b -34 171 1 -1 -62 86 l 145 717 b 269 806 163 770 213 806 l 483 806 b 545 720 528 806 559 762 l 435 391 l 366 391 b 339 361 350 391 337 377 b 367 336 340 347 353 336 l 426 336 b 488 381 454 336 479 354 l 553 578 b 615 623 562 605 587 623 l 644 623 b 706 538 688 623 720 580 l 652 379 b 683 336 645 358 661 336 l 768 336 b 795 366 784 336 797 350 b 766 391 794 380 781 391 l 711 391 l 818 717 b 942 806 836 770 886 806 l 1156 806 "},"x":{"ha":956,"x_min":0,"x_max":0,"o":"m 957 808 b 1019 722 1002 808 1033 764 l 884 312 b 771 223 867 262 823 228 b 804 89 805 190 821 139 b 681 0 787 36 737 0 l 470 0 b 409 85 426 0 395 43 l 438 175 b 440 181 439 177 439 179 b 416 223 445 202 432 217 l 389 223 b 367 199 379 219 371 212 l 316 45 b 254 0 307 18 282 0 l -2 0 b -64 85 -46 0 -78 43 l -9 249 b 115 338 9 302 58 338 l 115 338 b 53 424 71 338 40 382 l 152 718 b 275 808 169 772 219 808 l 486 808 b 547 722 530 808 561 764 l 467 482 b 343 392 449 429 400 392 l 205 392 b 177 368 191 392 178 382 b 204 338 175 352 188 338 l 734 338 b 761 368 750 338 762 352 b 732 393 760 382 747 393 l 603 393 b 542 478 559 393 528 436 l 622 718 b 746 808 640 772 689 808 l 957 808 "},"y":{"ha":947,"x_min":0,"x_max":0,"o":"m 946 810 b 991 676 990 810 1022 767 l 727 -126 b 737 -92 742 -82 740 -87 b 704 -136 729 -109 718 -124 b 700 -139 703 -137 701 -138 b 697 -141 699 -139 698 -140 b 619 -167 675 -157 648 -167 l -62 -167 b -124 -81 -106 -167 -137 -123 l -114 -51 l 310 -51 b 434 38 366 -51 416 -15 l 482 177 l 140 177 b 17 347 52 177 -11 263 l 141 721 b 264 810 158 774 208 810 l 474 810 b 536 725 519 810 550 767 l 456 484 b 333 395 439 431 389 395 l 195 395 b 166 371 180 395 167 385 b 193 341 164 355 177 341 l 723 341 b 750 370 739 341 752 354 b 721 395 749 385 736 395 l 593 395 b 531 480 548 395 517 438 l 611 721 b 734 810 629 774 678 810 l 946 810 "},"ý":{"ha":947,"x_min":0,"x_max":0,"o":"m 946 810 l 734 810 b 611 721 678 810 629 774 l 531 480 b 593 395 517 438 548 395 l 721 395 b 750 370 736 395 749 385 b 723 341 752 354 739 341 l 193 341 b 166 371 177 341 164 355 b 195 395 167 385 180 395 l 333 395 b 456 484 389 395 439 431 l 536 725 b 474 810 550 767 519 810 l 264 810 b 141 721 208 810 158 774 l 17 347 b 140 177 -11 263 52 177 l 482 177 l 434 38 b 310 -51 416 -15 366 -51 l -114 -51 l -124 -81 b -62 -167 -137 -123 -106 -167 l 619 -167 b 697 -141 648 -167 675 -157 b 700 -139 698 -140 699 -139 b 704 -136 701 -138 703 -137 b 737 -92 718 -124 729 -109 b 727 -126 740 -87 742 -82 l 991 676 b 946 810 1022 767 990 810 "},"ÿ":{"ha":947,"x_min":0,"x_max":0,"o":"m 946 810 b 991 676 990 810 1022 767 l 727 -126 b 737 -92 742 -82 740 -87 b 704 -136 729 -109 718 -124 b 700 -139 703 -137 701 -138 b 697 -141 699 -139 698 -140 b 619 -167 675 -157 648 -167 l -62 -167 b -124 -81 -106 -167 -137 -123 l -114 -51 l 310 -51 b 434 38 366 -51 416 -15 l 482 177 l 140 177 b 17 347 52 177 -11 263 l 141 721 b 264 810 158 774 208 810 l 474 810 b 536 725 519 810 550 767 l 456 484 b 333 395 439 431 389 395 l 195 395 b 166 371 180 395 167 385 b 193 341 164 355 177 341 l 723 341 b 750 370 739 341 752 354 b 721 395 749 385 736 395 l 593 395 b 531 480 548 395 517 438 l 611 721 b 734 810 629 774 678 810 l 946 810 "},"z":{"ha":1069,"x_min":0,"x_max":0,"o":"m 1060 806 b 1122 721 1105 806 1136 763 l 1045 485 b 967 404 1033 447 1004 417 b 895 391 944 395 920 391 l 513 391 l 119 245 b 104 208 104 240 97 223 b 139 195 110 195 126 190 l 522 337 l 925 337 b 987 251 970 337 1001 293 l 925 89 b 802 0 907 36 858 0 l 3 0 b -58 85 -41 0 -72 43 l 3 273 b 82 354 16 310 45 340 l 318 440 l 137 440 b 76 525 93 440 62 483 l 139 717 b 262 806 156 770 206 806 l 1060 806 "}," ":{"ha":696,"x_min":0,"x_max":0,"o":""},"­":{"ha":0,"x_min":0,"x_max":0,"o":""}}}
